<?xml version="1.0" encoding="UTF-8"?><svg id="Layer_1" xmlns="http://www.w3.org/2000/svg" viewBox="0 0 500 500"><defs><style>.cls-1{fill:#fff;}</style></defs><rect x="0" y="0" width="500" height="500" rx="12" ry="12"/><path class="cls-1" d="m333.99,456.09l-77.07-77.07c-.29-.29-.59-.53-.91-.76v-126.85l62.27-62.27c2.72-2.72,2.72-7.18,0-9.9s-7.18-2.72-9.9,0l-52.37,52.37v-75.88c33.64-3.03,60-31.29,60-65.72,0-36.45-29.55-66-66-66s-66,29.55-66,66c0,34.43,26.36,62.68,60,65.72v77.88l-54.37-54.37c-2.72-2.72-7.18-2.72-9.9,0s-2.72,7.18,0,9.9l63.64,63.64c.2.2.41.38.63.55v124.93c-.32.23-.63.47-.91.76l-77.07,77.07c-2.72,2.72-2.72,7.18,0,9.9s7.18,2.72,9.9,0l74.09-74.09,74.09,74.09c2.72,2.72,7.18,2.72,9.9,0s2.72-7.18,0-9.9Z"/><circle cx="224" cy="71" r="8"/><circle cx="276" cy="71" r="8"/><path d="m220.61,104c1.44-8.3,58.77-9.25,61,0,1.03,4.28-9.76,10.53-17,13-21.51,7.33-44.97-7.4-44-13Z"/></svg>