<?xml version="1.0" encoding="UTF-8"?><svg id="Layer_1" xmlns="http://www.w3.org/2000/svg" xmlns:xlink="http://www.w3.org/1999/xlink" viewBox="0 0 500 500"><defs><style>.cls-1{fill:#fff;}.cls-2{fill:aqua;}.cls-3{clip-path:url(#clippath-1);}.cls-4{clip-path:url(#clippath);}.cls-5{fill:red;}</style><clipPath id="clippath"><ellipse class="cls-1" cx="211.17" cy="57" rx="15.5" ry="9"/></clipPath><clipPath id="clippath-1"><ellipse class="cls-1" cx="273.17" cy="59" rx="15.5" ry="9"/></clipPath></defs><g id="Head"><circle class="cls-2" cx="242.17" cy="86.5" r="82.5"/><ellipse class="cls-1" cx="211.17" cy="57" rx="15.5" ry="9"/><g class="cls-4"><circle cx="212.67" cy="64" r="6"/></g><ellipse class="cls-1" cx="273.17" cy="59" rx="15.5" ry="9"/><g class="cls-3"><circle cx="271.67" cy="66" r="6"/></g><ellipse class="cls-5" cx="242.17" cy="122" rx="42.5" ry="23"/><ellipse cx="242.17" cy="122" rx="33.26" ry="18"/></g><path id="RLeg" class="cls-2" d="m341.85,476.76l-85.85-85.85v13.18l-12.5,12.5,79.26,79.26c5.27,5.27,13.82,5.27,19.09,0h0c5.27-5.27,5.27-13.82,0-19.09Z"/><path id="Torso" class="cls-2" d="m242.5,153c-7.46,0-13.5,6.04-13.5,13.5v226.41l14.5-14.5,12.5,12.5v-224.41c0-7.46-6.04-13.5-13.5-13.5Z"/><path id="LLeg" class="cls-2" d="m243.5,378.41l-14.5,14.5-4.59,4.59-80.26,80.26c-5.27,5.27-5.27,13.82,0,19.09h0c5.27,5.27,13.82,5.27,19.09,0l68.38-68.38,11.88-11.88,12.5-12.5v-13.18l-12.5-12.5Z"/><path id="RArm" class="cls-2" d="m341.85,173.41c-5.27-5.27-13.82-5.27-19.09,0l-79.76,79.76v38.18l98.85-98.85c5.27-5.27,5.27-13.82,0-19.09Z"/><path id="LArm" class="cls-2" d="m247,291.35l-97.85-97.85c-5.27-5.27-5.27-13.82,0-19.09h0c5.27-5.27,13.82-5.27,19.09,0l78.76,78.76v38.18Z"/></svg>
