<?xml version="1.0" encoding="UTF-8"?><svg id="Layer_2" xmlns="http://www.w3.org/2000/svg" viewBox="0 0 1016.68 283.94"><defs><style>.cls-1{fill:#00aeef;}.cls-2{fill:#333;}.cls-3{fill:none;}.cls-4{fill:#ed1c24;}</style></defs><g id="Layer_1-2"><path class="cls-3" d="m481.46,91.8c-3.92-.59-10.77,3.53-18.21,14.1-7.05,10.38-14.3,27.22-16.84,39.76-2.94,13.91,4.7,17.63,13.12,15.28,16.84-4.9,20.96-22.52,23.89-38.78-7.64,2.94-17.43-1.17-6.27-6.86,3.53-1.76,5.88-4.5,8.03-9.4,3.53-8.03.39-13.51-3.72-14.1Z"/><path class="cls-3" d="m465.2,207.36c2.94-.2,6.86-16.06,10.18-34.08-7.05,7.44-16.06,16.45-16.26,27.42,0,4.11,1.57,6.86,6.07,6.66Z"/><path class="cls-3" d="m271.7,91.8c-4.11-.59-10.97,3.53-18.21,14.1-7.25,10.38-14.89,27.03-17.04,39.76-1.57,9.6.98,17.24,12.93,15.67,15.67-1.96,19.39-19,24.29-39.17-7.83,2.94-17.63-1.17-6.27-6.86,3.33-1.76,5.88-4.5,7.83-9.4,3.53-8.03.39-13.51-3.53-14.1Z"/><path class="cls-3" d="m845.35,91.8c-4.11-.59-10.97,3.53-18.22,14.1-7.25,10.38-14.89,27.03-17.04,39.76-1.57,9.6.98,17.24,12.93,15.67,15.67-1.96,19.39-19,24.29-39.17-7.83,2.94-17.63-1.17-6.27-6.86,3.33-1.76,5.88-4.5,7.83-9.4,3.53-8.03.39-13.51-3.53-14.1Z"/><path d="m781.71,95.72c2.74-5.88,5.68-12.34,9.6-17.04-1.57.78,5.68-3.13,5.68-3.13.98-.59.98-2.35-.39-2.55,8.81-.78,10.38,5.09,13.32,5.68,3.72.39,11.95-21.15-2.55-30.75-28.01-18.41-74.43,39.76-93.23,58.37-23.5,23.31-42.11,43.09-42.11,43.09,0-23.9,4.7-94.21,14.49-113.6.39-1.76,3.72-2.94,4.9-4.31.78-.78.39-2.35-.98-2.35,3.53,0,6.86.2,9.4.98,10.19,2.94,13.91,8.42,16.06,8.23,3.72-.78-4.31-29.77-20.57-35.84-18.61-7.05-49.36,2.55-66.59,8.03-57,18.61-105.18,57.98-103.41,97.74.19,4.3.97,8.19,2.18,11.7-5.31,2.16-11.41,4.83-17.45,7.89,2.74-10.38,6.85-20.57,11.16-30.55,4.7-10.77,8.81-9.4,6.07-12.34-9.99-10.18-26.44-3.13-28.79-.2-1.37-2.15-8.03-4.9-8.81-5.09-27.22-7.25-53.47,14.89-64.83,42.11-2.94,6.66-5.29,13.71-6.46,20.37-.04.21-.06.41-.1.62-5.81,8.16-13.88,17.26-21.25,17.79-12.14,1.17-6.46-31.14,18.8-66.59,10.58-14.89,1.96-17.24-8.62-15.67-22.33,3.13-32.12,16.45-46.62,32.9,3.33-6.27,6.86-12.34,9.99-18.02,3.33-6.07,3.92-9.01,3.92-11.16-.39-7.44-39.56-1.96-33.1,4.31,1.96,1.96,1.37,4.11-.39,8.23-4.46,9.72-20.52,35.19-24.05,56.5-4.74,5.35-10.09,9.58-15.11,9.51-7.64,0-6.27-20.17,1.96-44.46,2.15-6.07,4.7-12.34,7.44-18.8,4.7-10.77,9.01-9.4,6.27-12.34-9.99-10.18-26.64-3.13-28.79-.2-1.18-1.57-8.03-4.9-9.01-5.09-27.22-7.25-53.27,14.89-64.83,42.11-.34.82-.67,1.65-1,2.48-3.15-2.48-6.84-4.68-10.95-6.59,12.14-30.95,25.85-55.62,36.63-66.2,7.44-7.44,9.99-12.54,5.29-14.3-24.09-9.4-50.53,25.85-69.73,72.47-17.43-2.94-37.21-3.13-55.04-.78,7.25-18.21,13.71-33.3,17.24-39.76,6.46-12.34,13.32-22.52,20.17-29.18,4.31-4.31,7.05-8.23,7.64-10.77,3.53,0,6.86.2,9.4.98,10.19,2.94,13.91,8.42,16.06,8.23,3.72-.78-4.31-29.77-20.57-35.84-18.61-7.05-49.36,2.55-66.59,8.03C46.47,29.13-1.72,68.5.05,108.26c1.57,34.86,41.52,43.09,36.04,36.63,0,0-14.3-19.59-2.35-43.68,11.36-22.52,60.13-51.9,98.91-65.22-18.8,16.45-36.63,48.57-48.18,82.07-3.72,1.76-6.86,3.72-9.6,5.88-9.01,7.44-13.12,17.24-8.81,28.79.2.78,1.96,5.88,3.72,3.13,1.17-2.15,3.13-4.11,5.68-5.88-9.01,40.35-6.27,75.6,16.84,77.95.78.2,6.66.78,4.5-1.96-9.21-12.34.2-50.92,12.54-87.16,17.43-2.94,38-3.53,56.21-2.94-21.54,65.61-27.62,140.43,3.72,147.88.78.2,6.66.78,4.7-1.96-10.18-13.51.39-77.95,18.21-134.17,1.17-3.13,2.15-6.27,3.13-9.4,5.55.9,9.95,1.79,13.36,2.84-.08.36-.17.72-.24,1.08-5.48,26.83,16.26,47.2,38.39,39.96,6.86-2.35,14.69-7.83,22.13-14.3,4.11,12.14,14.3,18.41,28.2,13.91,7.46-2.44,14.3-8.32,20.08-15.03,2.14,7.97,8.1,14.04,20.06,16.4.78.2,6.46.78,4.9-1.96-9.79-16.45,11.36-58.56,29.38-63.07-3.72,7.83-6.66,16.06-8.23,24.09-5.48,26.83,6.85,46.81,28.99,39.56,10.21-3.34,19.24-13.1,26.02-22.64,3.43,17.5,17.76,27.7,32.93,20.88-19.78,20.96-9.01,49.36,11.95,49.16,26.25-.2,33.1-40.74,40.54-79.32,6.12-6.62,17.74-14.04,28.61-20.17,11.64,16.71,33.08,20.12,28.97,15.27,0,0-14.3-19.59-2.35-43.68,11.36-22.52,60.13-51.9,98.91-65.22-48.18,41.72-88.33,186.85-40.35,191.94.78.2,6.66.78,4.5-1.96-13.51-18.41,11.16-91.47,29.77-129.27-1.76,13.91-2.94,30.75-2.94,50.73-.2,51.71,19.2,59.35,29.38,58.76,9.6-.59,9.21-1.18,3.92-7.25-5.68-6.27-3.72-16.84,0-23.5,5.48-10.19,35.45-44.26,63.66-68.36-15.47,36.23-54.06,165.5-7.05,176.67.78.2,6.66.78,4.5-1.96-18.22-24.68,22.52-152.18,38.39-186.07Zm-506.48,10.18c-1.96,4.9-4.5,7.64-7.83,9.4-11.36,5.68-1.57,9.79,6.27,6.86-4.9,20.17-8.62,37.21-24.29,39.17-11.95,1.57-14.49-6.07-12.93-15.67,2.15-12.73,9.79-29.38,17.04-39.76,7.25-10.58,14.1-14.69,18.21-14.1,3.92.59,7.05,6.07,3.53,14.1Zm189.98,101.46c-4.5.2-6.07-2.55-6.07-6.66.2-10.97,9.21-19.98,16.26-27.42-3.33,18.02-7.25,33.88-10.18,34.08Zm19.98-101.46c-2.15,4.9-4.5,7.64-8.03,9.4-11.16,5.68-1.37,9.79,6.27,6.86-2.94,16.26-7.05,33.88-23.89,38.78-8.42,2.35-16.06-1.37-13.12-15.28,2.55-12.54,9.79-29.38,16.84-39.76,7.44-10.58,14.3-14.69,18.21-14.1,4.11.59,7.25,6.07,3.72,14.1Z"/><path d="m1000.08,129.8s-15.86,29.77-29.38,30.75c-12.14,1.17-6.46-31.14,18.8-66.59,10.58-14.89,1.96-17.24-8.62-15.67-22.33,3.13-32.12,16.45-46.62,32.9,3.33-6.27,6.85-12.34,9.99-18.02,3.33-6.07,3.92-9.01,3.92-11.16-.39-7.44-39.56-1.96-33.1,4.31,1.96,1.96,1.37,4.11-.39,8.23-4.46,9.72-20.53,35.19-24.06,56.5-4.74,5.35-10.09,9.58-15.11,9.51-7.64,0-6.27-20.17,1.96-44.46,2.15-6.07,4.7-12.34,7.44-18.8,4.7-10.77,9.01-9.4,6.27-12.34-9.99-10.18-26.64-3.13-28.79-.2-1.17-1.57-8.03-4.9-9.01-5.09-27.23-7.25-53.28,14.89-64.83,42.11-2.74,6.66-5.09,13.71-6.46,20.37-5.48,26.83,16.26,47.2,38.39,39.96,6.86-2.35,14.69-7.83,22.13-14.3,4.11,12.14,14.3,18.41,28.2,13.91,7.46-2.44,14.3-8.32,20.08-15.03,2.14,7.97,8.1,14.04,20.06,16.4.78.2,6.46.78,4.9-1.96-9.79-16.45,11.36-58.56,29.38-63.07-3.72,7.83-6.66,16.06-8.23,24.09-5.48,26.83,6.86,46.81,28.99,39.56,22.13-7.25,38.78-44.66,38.78-44.66l-4.7-7.25Zm-151.2-23.89c-1.96,4.9-4.5,7.64-7.83,9.4-11.36,5.68-1.57,9.79,6.27,6.86-4.9,20.17-8.62,37.21-24.29,39.17-11.95,1.57-14.49-6.07-12.93-15.67,2.15-12.73,9.79-29.38,17.04-39.76,7.25-10.58,14.1-14.69,18.22-14.1,3.92.59,7.05,6.07,3.53,14.1Z"/><path class="cls-1" d="m493.36,91.8c-3.92-.59-10.77,3.53-18.21,14.1-7.05,10.38-14.3,27.22-16.84,39.76-2.94,13.91,4.7,17.63,13.12,15.28,16.84-4.9,20.96-22.52,23.89-38.78-7.64,2.94-17.43-1.17-6.27-6.86,3.53-1.76,5.88-4.5,8.03-9.4,3.53-8.03.39-13.51-3.72-14.1Z"/><path class="cls-1" d="m477.1,207.36c2.94-.2,6.86-16.06,10.18-34.08-7.05,7.44-16.06,16.45-16.26,27.42,0,4.11,1.57,6.86,6.07,6.66Z"/><path class="cls-1" d="m283.6,91.8c-4.11-.59-10.97,3.53-18.21,14.1-7.25,10.38-14.89,27.03-17.04,39.76-1.57,9.6.98,17.24,12.93,15.67,15.67-1.96,19.39-19,24.29-39.17-7.83,2.94-17.63-1.17-6.27-6.86,3.33-1.76,5.88-4.5,7.83-9.4,3.53-8.03.39-13.51-3.53-14.1Z"/><path class="cls-2" d="m857.25,91.8c-4.11-.59-10.97,3.53-18.22,14.1-7.25,10.38-14.89,27.03-17.04,39.76-1.57,9.6.98,17.24,12.93,15.67,15.67-1.96,19.39-19,24.29-39.17-7.83,2.94-17.63-1.17-6.27-6.86,3.33-1.76,5.88-4.5,7.83-9.4,3.53-8.03.39-13.51-3.53-14.1Z"/><path class="cls-4" d="m793.61,95.72c2.74-5.88,5.68-12.34,9.6-17.04-1.57.78,5.68-3.13,5.68-3.13.98-.59.98-2.35-.39-2.55,8.81-.78,10.38,5.09,13.32,5.68,3.72.39,11.95-21.15-2.55-30.75-28.01-18.41-74.43,39.76-93.23,58.37-23.5,23.31-42.11,43.09-42.11,43.09,0-23.9,4.7-94.21,14.49-113.6.39-1.76,3.72-2.94,4.9-4.31.78-.78.39-2.35-.98-2.35,3.53,0,6.86.2,9.4.98,10.19,2.94,13.91,8.42,16.06,8.23,3.72-.78-4.31-29.77-20.57-35.84-18.61-7.05-49.36,2.55-66.59,8.03-57,18.61-105.18,57.98-103.41,97.74.19,4.3.97,8.19,2.18,11.7-5.31,2.16-11.41,4.83-17.45,7.89,2.74-10.38,6.85-20.57,11.16-30.55,4.7-10.77,8.81-9.4,6.07-12.34-9.99-10.18-26.44-3.13-28.79-.2-1.37-2.15-8.03-4.9-8.81-5.09-27.22-7.25-53.47,14.89-64.83,42.11-2.94,6.66-5.29,13.71-6.46,20.37-.04.21-.06.41-.1.62-5.81,8.16-13.88,17.26-21.25,17.79-12.14,1.17-6.46-31.14,18.8-66.59,10.58-14.89,1.96-17.24-8.62-15.67-22.33,3.13-32.12,16.45-46.62,32.9,3.33-6.27,6.86-12.34,9.99-18.02,3.33-6.07,3.92-9.01,3.92-11.16-.39-7.44-39.56-1.96-33.1,4.31,1.96,1.96,1.37,4.11-.39,8.23-4.46,9.72-20.52,35.19-24.05,56.5-4.74,5.35-10.09,9.58-15.11,9.51-7.64,0-6.27-20.17,1.96-44.46,2.15-6.07,4.7-12.34,7.44-18.8,4.7-10.77,9.01-9.4,6.27-12.34-9.99-10.18-26.64-3.13-28.79-.2-1.18-1.57-8.03-4.9-9.01-5.09-27.22-7.25-53.27,14.89-64.83,42.11-.34.82-.67,1.65-1,2.48-3.15-2.48-6.84-4.68-10.95-6.59,12.14-30.95,25.85-55.62,36.63-66.2,7.44-7.44,9.99-12.54,5.29-14.3-24.09-9.4-50.53,25.85-69.73,72.47-17.43-2.94-37.21-3.13-55.04-.78,7.25-18.21,13.71-33.3,17.24-39.76,6.46-12.34,13.32-22.52,20.17-29.18,4.31-4.31,7.05-8.23,7.64-10.77,3.53,0,6.86.2,9.4.98,10.19,2.94,13.91,8.42,16.06,8.23,3.72-.78-4.31-29.77-20.57-35.84-18.61-7.05-49.36,2.55-66.59,8.03C58.36,29.13,10.18,68.5,11.95,108.26c1.57,34.86,41.52,43.09,36.04,36.63,0,0-14.3-19.59-2.35-43.68,11.36-22.52,60.13-51.9,98.91-65.22-18.8,16.45-36.63,48.57-48.18,82.07-3.72,1.76-6.86,3.72-9.6,5.88-9.01,7.44-13.12,17.24-8.81,28.79.2.78,1.96,5.88,3.72,3.13,1.17-2.15,3.13-4.11,5.68-5.88-9.01,40.35-6.27,75.6,16.84,77.95.78.2,6.66.78,4.5-1.96-9.21-12.34.2-50.92,12.54-87.16,17.43-2.94,38-3.53,56.21-2.94-21.54,65.61-27.62,140.43,3.72,147.88.78.2,6.66.78,4.7-1.96-10.18-13.51.39-77.95,18.21-134.17,1.17-3.13,2.15-6.27,3.13-9.4,5.55.9,9.95,1.79,13.36,2.84-.08.36-.17.72-.24,1.08-5.48,26.83,16.26,47.2,38.39,39.96,6.86-2.35,14.69-7.83,22.13-14.3,4.11,12.14,14.3,18.41,28.2,13.91,7.46-2.44,14.3-8.32,20.08-15.03,2.14,7.97,8.1,14.04,20.06,16.4.78.2,6.46.78,4.9-1.96-9.79-16.45,11.36-58.56,29.38-63.07-3.72,7.83-6.66,16.06-8.23,24.09-5.48,26.83,6.85,46.81,28.99,39.56,10.21-3.34,19.24-13.1,26.02-22.64,3.43,17.5,17.76,27.7,32.93,20.88-19.78,20.96-9.01,49.36,11.95,49.16,26.25-.2,33.1-40.74,40.54-79.32,6.12-6.62,17.74-14.04,28.61-20.17,11.64,16.71,33.08,20.12,28.97,15.27,0,0-14.3-19.59-2.35-43.68,11.36-22.52,60.13-51.9,98.91-65.22-48.18,41.72-88.33,186.85-40.35,191.94.78.2,6.66.78,4.5-1.96-13.51-18.41,11.16-91.47,29.77-129.27-1.76,13.91-2.94,30.75-2.94,50.73-.2,51.71,19.2,59.35,29.38,58.76,9.6-.59,9.21-1.18,3.92-7.25-5.68-6.27-3.72-16.84,0-23.5,5.48-10.19,35.45-44.26,63.66-68.36-15.47,36.23-54.06,165.5-7.05,176.67.78.2,6.66.78,4.5-1.96-18.22-24.68,22.52-152.18,38.39-186.07Z"/><path class="cls-2" d="m287.12,105.91c-1.96,4.9-4.5,7.64-7.83,9.4-11.36,5.68-1.57,9.79,6.27,6.86-4.9,20.17-8.62,37.21-24.29,39.17-11.95,1.57-14.49-6.07-12.93-15.67,2.15-12.73,9.79-29.38,17.04-39.76,7.25-10.58,14.1-14.69,18.21-14.1,3.92.59,7.05,6.07,3.53,14.1Z"/><path class="cls-2" d="m477.1,207.36c-4.5.2-6.07-2.55-6.07-6.66.2-10.97,9.21-19.98,16.26-27.42-3.33,18.02-7.25,33.88-10.18,34.08Z"/><path class="cls-2" d="m497.08,105.91c-2.15,4.9-4.5,7.64-8.03,9.4-11.16,5.68-1.37,9.79,6.27,6.86-2.94,16.26-7.05,33.88-23.89,38.78-8.42,2.35-16.06-1.37-13.12-15.28,2.55-12.54,9.79-29.38,16.84-39.76,7.44-10.58,14.3-14.69,18.21-14.1,4.11.59,7.25,6.07,3.72,14.1Z"/><path class="cls-4" d="m1011.97,129.8s-15.86,29.77-29.38,30.75c-12.14,1.17-6.46-31.14,18.8-66.59,10.58-14.89,1.96-17.24-8.62-15.67-22.33,3.13-32.12,16.45-46.62,32.9,3.33-6.27,6.85-12.34,9.99-18.02,3.33-6.07,3.92-9.01,3.92-11.16-.39-7.44-39.56-1.96-33.1,4.31,1.96,1.96,1.37,4.11-.39,8.23-4.46,9.72-20.53,35.19-24.06,56.5-4.74,5.35-10.09,9.58-15.11,9.51-7.64,0-6.27-20.17,1.96-44.46,2.15-6.07,4.7-12.34,7.44-18.8,4.7-10.77,9.01-9.4,6.27-12.34-9.99-10.18-26.64-3.13-28.79-.2-1.17-1.57-8.03-4.9-9.01-5.09-27.23-7.25-53.28,14.89-64.83,42.11-2.74,6.66-5.09,13.71-6.46,20.37-5.48,26.83,16.26,47.2,38.39,39.96,6.86-2.35,14.69-7.83,22.13-14.3,4.11,12.14,14.3,18.41,28.2,13.91,7.46-2.44,14.3-8.32,20.08-15.03,2.14,7.97,8.1,14.04,20.06,16.4.78.2,6.46.78,4.9-1.96-9.79-16.45,11.36-58.56,29.38-63.07-3.72,7.83-6.66,16.06-8.23,24.09-5.48,26.83,6.86,46.81,28.99,39.56,22.13-7.25,38.78-44.66,38.78-44.66l-4.7-7.25Zm-151.2-23.89c-1.96,4.9-4.5,7.64-7.83,9.4-11.36,5.68-1.57,9.79,6.27,6.86-4.9,20.17-8.62,37.21-24.29,39.17-11.95,1.57-14.49-6.07-12.93-15.67,2.15-12.73,9.79-29.38,17.04-39.76,7.25-10.58,14.1-14.69,18.22-14.1,3.92.59,7.05,6.07,3.53,14.1Z"/></g></svg>