<?xml version="1.0" encoding="UTF-8"?><svg id="Layer_1" xmlns="http://www.w3.org/2000/svg" viewBox="0 0 500 500"><defs><style>.cls-1{fill:#fff;}</style></defs><rect width="500" height="503"/><path class="cls-1" d="m62.44.25c-5.75,0-10.41,4.66-10.41,10.41v478.68c0,5.75,4.66,10.41,10.41,10.41h41.62c5.75,0,10.41-4.66,10.41-10.41V223.09L274.88,62.69h68.53v72.4c-2.37,1.74-5.24,2.99-7.13,5.12-7.93,8.92-11.67,20.39-11.67,31.73,0,1.67.26,3.33.43,5h-11.95c-28.84,0-52.93,22.68-52.93,52.03v108.41c-.02,1.89.47,3.75,1.42,5.39,1.54,6.27,4.75,11.86,9.43,15.22,6.04,4.34,13.18,6.26,20.37,6.26,3.67,0,6.9-2.12,10.41-3.19v107.48c0,9.27,3.77,17.61,9.72,23.01,5.94,5.4,13.64,7.99,21.32,7.99s15.23-3.4,20.93-8.92c5.6,5.5,12.83,8.92,20.69,8.92s15.37-2.55,21.4-7.91c6.03-5.35,10-13.72,10-23.09v-107.64c3.66,1.17,7.05,3.35,10.89,3.35,7.18,0,14.32-1.92,20.37-6.26,4.68-3.36,7.89-8.96,9.43-15.22.95-1.63,1.45-3.49,1.42-5.39v-108.41c0-21.53-13-39.45-31.3-47.44.61-3.17,1-6.38,1-9.59,0-11.34-3.74-22.81-11.67-31.73-7.93-8.92-20.22-14.78-34.86-14.78-2.54,0-4.52,1.06-6.91,1.4V62.69h31.22c5.75,0,10.41-4.66,10.41-10.41,0,0,0-10.41-.06-20.85-.02-5.22-.04-10.44-.1-14.41-.03-1.98-.08-3.65-.12-4.92-.02-.64-.04-1.15-.08-1.73-.02-.29-.03-.56-.12-1.16-.05-.3-.07-.62-.37-1.59-.07-.24-.32-.91-.33-.91,0,0-.77-1.52-.77-1.52s-2.34-2.64-2.34-2.64-6.52-2.3-6.52-2.3H62.44Zm10.41,20.81h312.06c.03,3.28.06,6.63.08,10.45.02,5.18.01,6.47.02,10.37h-114.45c-2.76,0-5.41,1.1-7.36,3.05L96.71,211.42c-1.95,1.95-3.05,4.6-3.05,7.36v260.15h-20.81V21.06Zm31.22,20.81c-5.75,0-10.41,4.66-10.41,10.41v104.06c0,5.75,4.66,10.41,10.41,10.4,2.76,0,5.4-1.1,7.35-3.05l104.06-104.06c4.06-4.07,4.06-10.66,0-14.72-1.95-1.95-4.59-3.04-7.35-3.05h-104.06Zm10.41,20.81h68.53l-68.53,68.53V62.69Zm256.66,83.55c9.43,0,15.2,3.16,19.31,7.78s6.4,11.19,6.4,17.91c0,3.09-.54,6.13-1.46,8.98-1.52,1.62-2.48,3.69-2.74,5.89-.67,1.07-1.37,2.12-2.2,3.05-4.11,4.62-9.87,7.78-19.31,7.78s-15.2-3.16-19.31-7.78c-4.11-4.62-6.4-11.21-6.4-17.93s2.29-13.28,6.4-17.91,9.87-7.78,19.31-7.78Zm-58.05,51.5h18.9c1.29,2.05,2.64,4.08,4.29,5.93,7.93,8.92,20.22,14.78,34.86,14.78s26.93-5.86,34.86-14.78c.9-1.02,1.56-2.17,2.36-3.25,11.26,4.66,18.8,15,18.8,28.54v108.41c0,1.79-.4,2.43-2.17,3.7-1.77,1.27-5.05,2.36-8.23,2.36s-6.46-1.08-8.23-2.36-2.17-1.91-2.17-3.7c.01-1.1-.15-2.2-.49-3.25v-84.35c.08-5.75-4.51-10.47-10.26-10.55-5.75-.08-10.47,4.51-10.55,10.26,0,.1,0,.2,0,.29v218.75c0,4.01-1.21,5.92-3.01,7.52s-4.59,2.66-7.58,2.66c-5.88,0-9.04-1.99-10.22-11.22v-.02c0-.1,0-.2,0-.3v-102.7c.08-5.75-4.51-10.47-10.26-10.55-5.75-.08-10.47,4.51-10.55,10.26,0,.1,0,.2,0,.29v103.03c-1.16,9.07-4.71,11.22-10.59,11.22-2.99,0-5.61-1.03-7.32-2.58-1.7-1.55-2.91-3.5-2.91-7.6v-218.53c.08-5.75-4.51-10.47-10.26-10.55s-10.47,4.51-10.55,10.26c0,.1,0,.2,0,.29v87.38c0,1.79-.4,2.43-2.17,3.7-1.77,1.27-5.05,2.36-8.23,2.36s-6.46-1.08-8.23-2.36c-1.77-1.27-2.17-1.91-2.17-3.7v-108.41c0-18.37,13.71-31.22,32.11-31.22Z"/></svg>